<!DOCTYPE svg PUBLIC "-//W3C//DTD SVG 1.1//EN" "http://www.w3.org/Graphics/SVG/1.1/DTD/svg11.dtd">
<!-- Uploaded to: SVG Repo, www.svgrepo.com, Transformed by: SVG Repo Mixer Tools -->
<svg width="800px" height="800px" viewBox="0 0 1024 1024" class="icon" xmlns="http://www.w3.org/2000/svg" fill="#000000">
<g id="SVGRepo_bgCarrier" stroke-width="0"/>
<g id="SVGRepo_tracerCarrier" stroke-linecap="round" stroke-linejoin="round"/>
<g id="SVGRepo_iconCarrier">
<path fill="#ffffff" d="M160 96.064l192 .192a32 32 0 010 64l-192-.192V352a32 32 0 01-64 0V96h64v.064zm0 831.872V928H96V672a32 32 0 1164 0v191.936l192-.192a32 32 0 110 64l-192 .192zM864 96.064V96h64v256a32 32 0 11-64 0V160.064l-192 .192a32 32 0 110-64l192-.192zm0 831.872l-192-.192a32 32 0 010-64l192 .192V672a32 32 0 1164 0v256h-64v-.064z"/>
</g>
</svg>