<!DOCTYPE svg PUBLIC "-//W3C//DTD SVG 1.1//EN" "http://www.w3.org/Graphics/SVG/1.1/DTD/svg11.dtd">
<!-- Uploaded to: SVG Repo, www.svgrepo.com, Transformed by: SVG Repo Mixer Tools -->
<svg width="800px" height="800px" viewBox="0 0 32 32" xmlns="http://www.w3.org/2000/svg" fill="#000000" stroke="#000000">
<g id="SVGRepo_bgCarrier" stroke-width="0"/>
<g id="SVGRepo_tracerCarrier" stroke-linecap="round" stroke-linejoin="round"/>
<g id="SVGRepo_iconCarrier"> <defs> <style>.cls-1{fill:#ffffff;}.cls-2{fill:#ffffff;}</style> </defs> <title/> <g data-name="Layer 13" id="Layer_13"> <path class="cls-1" d="M21.69,14.43,13,9.44a1,1,0,0,0-1.44.54L6,26a3.18,3.18,0,0,0,1.16,3.83,2.5,2.5,0,0,0,1.3.36,3.75,3.75,0,0,0,2.62-1.26L22,15.94a1,1,0,0,0,.22-.82A1,1,0,0,0,21.69,14.43Z"/> <path class="cls-2" d="M26,7.3A7.16,7.16,0,0,0,22.6,2.79,7.45,7.45,0,0,0,12.5,5.72a7.44,7.44,0,0,0,2.56,10.19,7,7,0,0,0,3.53.94A7.72,7.72,0,0,0,26,7.3Z"/> <path class="cls-2" d="M12,22a1,1,0,0,1-.87-1.5L13,17.31A1,1,0,0,1,14.35,17a1,1,0,0,1,.36,1.36l-1.8,3.14A1,1,0,0,1,12,22Z"/> </g> </g>
</svg>